<?xml version="1.0" standalone="no"?>
<!DOCTYPE svg PUBLIC "-//W3C//DTD SVG 20010904//EN"
 "http://www.w3.org/TR/2001/REC-SVG-20010904/DTD/svg10.dtd">
<svg version="1.0" xmlns="http://www.w3.org/2000/svg"
 width="180.000000pt" height="60.000000pt" viewBox="0 0 180.000000 60.000000"
 preserveAspectRatio="xMidYMid meet">

<g transform="translate(0.000000,60.000000) scale(0.100000,-0.100000)"
fill="#000000" stroke="none">
<path d="M95 388 c-48 -127 -82 -248 -70 -248 8 0 29 47 54 123 23 67 41 125
41 130 0 12 -20 8 -25 -5z"/>
<path d="M330 281 c0 -91 2 -100 20 -106 21 -7 40 0 40 16 0 5 -7 9 -15 9 -12
0 -15 17 -15 90 0 73 -3 90 -15 90 -12 0 -15 -18 -15 -99z"/>
<path d="M930 346 c0 -34 0 -34 -39 -29 -31 4 -43 1 -60 -16 -55 -55 15 -162
79 -121 9 5 19 5 27 -1 25 -21 33 3 33 102 0 92 -1 99 -20 99 -16 0 -20 -7
-20 -34z m-19 -56 c23 -13 26 -62 5 -80 -25 -20 -60 -8 -71 24 -8 24 -6 31 14
47 27 22 27 22 52 9z"/>
<path d="M160 300 c-59 -59 16 -159 91 -120 32 17 22 32 -16 24 -22 -4 -41 -2
-50 6 -39 32 3 98 51 80 27 -11 45 7 23 21 -25 16 -78 10 -99 -11z"/>
<path d="M620 255 c0 -60 2 -66 25 -77 18 -8 31 -8 49 0 18 8 26 8 28 0 3 -7
11 -9 19 -6 20 8 14 148 -7 148 -10 0 -14 -13 -14 -49 0 -54 -17 -77 -50 -66
-17 5 -20 15 -20 61 0 41 -4 54 -15 54 -12 0 -15 -14 -15 -65z"/>
<path d="M1248 218 c-3 -88 -1 -98 15 -98 13 0 17 8 17 35 0 32 2 35 19 25 30
-16 50 -12 76 15 31 30 33 77 5 105 -15 15 -32 19 -74 18 l-55 -2 -3 -98z
m107 62 c24 -26 13 -68 -20 -76 -33 -8 -55 11 -55 47 0 46 44 63 75 29z"/>
<path d="M1460 220 c0 -82 3 -100 15 -100 10 0 15 10 15 34 0 34 0 34 30 23
62 -23 115 59 75 119 -17 27 -71 34 -93 12 -9 -9 -12 -9 -12 0 0 7 -7 12 -15
12 -12 0 -15 -18 -15 -100z m104 64 c19 -18 21 -55 4 -72 -15 -15 -51 -15 -66
0 -26 26 -3 88 33 88 7 0 21 -7 29 -16z"/>
<path d="M410 272 c0 -38 9 -51 63 -91 16 -12 17 -9 17 37 0 46 -3 52 -34 71
-18 12 -36 21 -40 21 -3 0 -6 -17 -6 -38z"/>
</g>
</svg>
